<?xml version="1.0" encoding="utf-8"?>
<!-- Generated by IcoMoon.io -->
<!DOCTYPE svg PUBLIC "-//W3C//DTD SVG 1.1//EN" "http://www.w3.org/Graphics/SVG/1.1/DTD/svg11.dtd">
<svg version="1.1" xmlns="http://www.w3.org/2000/svg" xmlns:xlink="http://www.w3.org/1999/xlink" viewBox="0 0 512 512" width="25px" height="25px">
<g>
</g>
	<path d="M409.6 230.4h-307.2c-14.131 0-25.6 11.469-25.6 25.6s11.469 25.6 25.6 25.6h307.2c14.157 0 25.6-11.469 25.6-25.6s-11.443-25.6-25.6-25.6zM102.4 179.2h307.2c14.157 0 25.6-11.469 25.6-25.6s-11.443-25.6-25.6-25.6h-307.2c-14.131 0-25.6 11.469-25.6 25.6s11.469 25.6 25.6 25.6zM409.6 332.8h-307.2c-14.131 0-25.6 11.443-25.6 25.6s11.469 25.6 25.6 25.6h307.2c14.157 0 25.6-11.443 25.6-25.6s-11.443-25.6-25.6-25.6z" fill="#FFFFFF" />
</svg>
