<?xml version="1.0" encoding="utf-8"?>
<!-- Generated by IcoMoon.io -->
<!DOCTYPE svg PUBLIC "-//W3C//DTD SVG 1.1//EN" "http://www.w3.org/Graphics/SVG/1.1/DTD/svg11.dtd">
<svg version="1.1" xmlns="http://www.w3.org/2000/svg" xmlns:xlink="http://www.w3.org/1999/xlink" width="25px" height="25px" viewBox="0 0 512 512">
<g>
</g>
	<path d="M497.914 497.913c-18.783 18.782-49.225 18.782-68.008 0l-84.863-84.863c-34.888 22.382-76.13 35.717-120.659 35.717-123.915 0-224.384-100.454-224.384-224.384s100.469-224.383 224.384-224.383c123.931 0 224.384 100.452 224.384 224.383 0 44.514-13.352 85.771-35.718 120.676l84.864 84.863c18.781 18.782 18.781 49.209 0 67.991zM224.384 64.109c-88.511 0-160.274 71.747-160.274 160.273s71.763 160.274 160.274 160.274c88.526 0 160.274-71.748 160.274-160.274s-71.748-160.273-160.274-160.273z" fill="#FFFFFF" />
</svg>
